<svg width="18" height="22" viewBox="0 0 18 22" fill="none" xmlns="http://www.w3.org/2000/svg">
<path d="M17.8535 4.63185L12.8535 0.131836C12.7598 0.0474609 12.6328 0 12.5 0H1.99997C0.897469 0 0 0.807258 0 1.80001V19.8C0 20.7927 0.897469 21.6 2.00002 21.6H16C17.1025 21.6 18 20.7927 18 19.8V4.94999C18 4.83047 17.9473 4.71622 17.8535 4.63185ZM13 1.53634L16.293 4.50001H14C13.4482 4.50001 13 4.09615 13 3.60003V1.53634ZM17 19.8C17 20.2961 16.5518 20.7 16 20.7H2.00002C1.44825 20.7 1.00003 20.2961 1.00003 19.8V1.80001C1.00003 1.30389 1.4483 0.900028 2.00002 0.900028H12V3.60003C12 4.59274 12.8975 5.4 14 5.4H17V19.8Z" fill="white"/>
<path fill-rule="evenodd" clip-rule="evenodd" d="M6.70051 5.18029V5.18029C7.01791 5.21401 7.31798 5.30663 7.58955 5.44697C7.31798 5.30663 7.01791 5.21401 6.70051 5.18029ZM8.48855 8.89835C8.44824 8.85128 8.4239 8.79013 8.4239 8.7233V7.69722C8.4239 6.97849 8.0414 6.34749 7.46929 5.99696C8.0414 6.34749 8.42389 6.97849 8.42389 7.69721V8.7233C8.42389 8.79013 8.44824 8.85128 8.48855 8.89835ZM6.22819 8.49418C6.18693 8.44686 6.16194 8.38498 6.16194 8.31728V5.72278C6.16193 5.72278 6.16193 5.72278 6.16193 5.72278V8.31727C6.16193 8.38498 6.18692 8.44686 6.22819 8.49418ZM3.96249 8.89581C3.92346 8.84909 3.89997 8.78893 3.89997 8.72329V7.6972C3.89997 6.39244 4.89233 5.31517 6.16194 5.18029V4.67553C6.16194 4.52681 6.28251 4.40624 6.43122 4.40624C6.4684 4.40624 6.50382 4.41377 6.53603 4.4274C6.50381 4.41377 6.46839 4.40623 6.43121 4.40623C6.2825 4.40623 6.16193 4.5268 6.16193 4.67552V5.18029C4.89232 5.31516 3.89996 6.39243 3.89996 7.69719V8.72328C3.89996 8.78893 3.92345 8.84909 3.96249 8.89581ZM6.84112 4.67552V5.05684C8.12059 5.2547 9.10309 6.36307 9.10309 7.69721V8.7233C9.10309 8.94968 8.91956 9.13321 8.69318 9.13321C8.46679 9.13321 8.28327 8.94968 8.28327 8.7233V7.69721C8.28327 6.81707 7.66571 6.07802 6.84112 5.89099V8.31727C6.84112 8.54365 6.6576 8.72718 6.43121 8.72718C6.20483 8.72718 6.0213 8.54365 6.0213 8.31727V5.89097C5.19672 6.078 4.57916 6.81705 4.57916 7.69719V8.72328C4.57916 8.94966 4.39563 9.13319 4.16925 9.13319C3.94287 9.13319 3.75934 8.94966 3.75934 8.72328V7.69719C3.75934 6.36307 4.74183 5.2547 6.0213 5.05684V4.67552C6.0213 4.44914 6.20483 4.26561 6.43121 4.26561C6.6576 4.26561 6.84112 4.44914 6.84112 4.67552Z" fill="white"/>
<path d="M14.4999 14H3.49995C3.22358 14 2.99994 14.2237 2.99994 14.5C2.99994 14.7764 3.22358 15.0001 3.49995 15.0001H14.5C14.7763 15.0001 15 14.7764 15 14.5C14.9999 14.2237 14.7763 14 14.4999 14Z" fill="white"/>
<path d="M14.4999 11H3.49995C3.22358 11 2.99994 11.2237 2.99994 11.5C2.99994 11.7764 3.22358 12 3.49995 12H14.5C14.7763 12 15 11.7764 15 11.5C14.9999 11.2237 14.7763 11 14.4999 11Z" fill="white"/>
<path d="M14.4999 17H3.49995C3.22358 17 2.99994 17.2237 2.99994 17.5C2.99994 17.7764 3.22358 18 3.49995 18H14.5C14.7763 18 15 17.7764 15 17.5C14.9999 17.2237 14.7763 17 14.4999 17Z" fill="white"/>
<path d="M10.3124 8.50781C10.3124 8.77986 10.4622 9 10.6473 9H14.6651C14.8502 9 14.9999 8.77986 14.9999 8.50781C14.9999 8.23576 14.8502 8.01562 14.6651 8.01562H10.6473C10.4622 8.01567 10.3124 8.23581 10.3124 8.50781Z" fill="white"/>
</svg>
