<svg width="52" height="52" viewBox="0 0 52 52" fill="none" xmlns="http://www.w3.org/2000/svg">
<circle cx="26" cy="26" r="26" fill="#FF8300"/>
<path d="M33.2549 26.0784C30.6386 26.0784 28.5098 28.2073 28.5098 30.8235C28.5098 33.4398 30.6386 35.5686 33.2549 35.5686C35.8712 35.5686 38 33.4398 38 30.8235C38 28.2073 35.8712 26.0784 33.2549 26.0784ZM35.2667 30.0622C33.8873 32.1315 34.2785 31.5448 33.5412 32.6504C33.2764 33.0476 32.7403 33.1529 32.3447 32.8893L31.0506 32.0265C30.6543 31.7623 30.5475 31.2269 30.8117 30.83C31.0759 30.4337 31.6114 30.3269 32.0082 30.5911L32.5841 30.975C33.9601 28.9114 33.8861 28.9685 34.1176 28.8365C34.9034 28.382 35.7717 29.3037 35.2667 30.0622ZM29.3726 35.9968V40.7451C29.3726 41.4061 30.0885 41.8227 30.6634 41.4941L33.2549 40.0134L35.8464 41.4941C36.419 41.8222 37.1373 41.408 37.1373 40.7451V35.9968C34.8387 37.7261 31.6744 37.7286 29.3726 35.9968ZM34.9804 24.587V15.8738C34.9804 14.8406 34.1398 14 33.1066 14H17.8738C16.8406 14 16 14.8406 16 15.8738V35.8517C16 36.8848 16.8406 37.7255 17.8738 37.7255H27.6471C27.6471 34.0128 27.6413 34.2426 27.6605 34.0718C24.7724 29.1203 29.3713 23.0293 34.9804 24.587ZM21.1765 18.3137H28.5098C28.9865 18.3137 29.3726 18.6998 29.3726 19.1765C29.3726 19.6531 28.9865 20.0392 28.5098 20.0392H21.1765C20.6998 20.0392 20.3137 19.6531 20.3137 19.1765C20.3137 18.6998 20.6998 18.3137 21.1765 18.3137ZM25.4902 26.9412H21.1765C20.6998 26.9412 20.3137 26.5551 20.3137 26.0784C20.3137 25.6018 20.6998 25.2157 21.1765 25.2157H25.4902C25.9669 25.2157 26.3529 25.6018 26.3529 26.0784C26.3529 26.5551 25.9669 26.9412 25.4902 26.9412ZM21.1765 23.4902C20.6998 23.4902 20.3137 23.1041 20.3137 22.6274C20.3137 22.1508 20.6998 21.7647 21.1765 21.7647H28.5098C28.9865 21.7647 29.3726 22.1508 29.3726 22.6274C29.3726 23.1041 28.9865 23.4902 28.5098 23.4902H21.1765Z" fill="white"/>
</svg>
