<svg width="18" height="27" viewBox="0 0 18 27" fill="none" xmlns="http://www.w3.org/2000/svg">
<path fill-rule="evenodd" clip-rule="evenodd" d="M17.9992 5.10541C17.999 5.09984 17.9987 5.09426 17.9983 5.08869C17.9967 5.06658 17.9944 5.04488 17.9898 5.02337C17.9852 5.00187 17.9787 4.98036 17.9714 4.95965C17.9695 4.95448 17.9677 4.9493 17.9656 4.94412C17.9579 4.92441 17.9491 4.90509 17.9391 4.88637L17.9374 4.88339C17.9266 4.86387 17.9141 4.84535 17.9005 4.82723C17.8972 4.82265 17.8936 4.81827 17.8901 4.81369C17.8757 4.79577 17.8606 4.77845 17.8438 4.76232L13.0111 0.149345C12.9942 0.133216 12.9761 0.118879 12.9573 0.105139C12.9525 0.101754 12.9477 0.0981695 12.9429 0.0949835C12.9239 0.0820403 12.9047 0.0700927 12.8845 0.0599372L12.8803 0.0579459C12.8611 0.0483878 12.8411 0.0402236 12.8209 0.0328559C12.8152 0.0308647 12.8098 0.0290725 12.804 0.0272804C12.7823 0.020311 12.7604 0.014138 12.7376 0.0097572C12.7153 0.00557555 12.6922 0.00318603 12.6692 0.00159301C12.6634 0.00139389 12.6575 0.000995632 12.6517 0.000796507C12.6456 0.000597383 12.6396 0 12.6335 0H0.534038C0.239065 0 0 0.228199 0 0.509765V22.3289C0 22.6105 0.239065 22.8387 0.534038 22.8387H8.57423V25.5902C8.57423 25.7756 8.67979 25.9464 8.8498 26.0362C9.02003 26.126 9.22759 26.1207 9.39218 26.0221L11.4261 24.804L13.4601 26.0221C13.5466 26.0739 13.6453 26.1 13.744 26.1C13.8328 26.1 13.9219 26.0788 14.0024 26.0364C14.1724 25.9466 14.278 25.7758 14.278 25.5902V22.8387H17.466C17.7609 22.8387 18 22.6105 18 22.3289V5.12274C18 5.11696 17.9994 5.11119 17.9992 5.10541ZM13.1676 1.74057L16.1768 4.61297H13.1676V1.74057ZM8.31076 15.7452C8.27321 15.6478 8.21209 15.4887 8.21063 15.4236C8.25235 15.3742 8.39712 15.2868 8.48578 15.2334C8.67603 15.1187 8.89173 14.9885 9.04819 14.785C9.20611 14.5793 9.27036 14.3417 9.3271 14.1322C9.35192 14.0406 9.39198 13.8927 9.42619 13.8367C9.44496 13.8329 9.48439 13.8276 9.55844 13.8276C9.6179 13.8276 9.68444 13.8308 9.75495 13.8341C9.83589 13.8379 9.91934 13.8419 10.0065 13.8419C10.1989 13.8419 10.3541 13.8212 10.4949 13.7764C10.7408 13.6983 10.9376 13.5472 11.1111 13.4138C11.2071 13.3401 11.3677 13.2166 11.4236 13.2091C11.4847 13.2166 11.6452 13.3401 11.7411 13.4138C11.9147 13.5472 12.1116 13.6983 12.3576 13.7764C12.4984 13.8212 12.6534 13.8419 12.8459 13.8419C12.9329 13.8419 13.0165 13.8379 13.0973 13.8341C13.1678 13.8308 13.2343 13.8276 13.294 13.8276C13.3681 13.8276 13.4073 13.8327 13.4263 13.8367C13.4605 13.8927 13.5005 14.0406 13.5251 14.1322C13.5819 14.3417 13.6463 14.5793 13.8043 14.785C13.9605 14.9885 14.1762 15.1185 14.3667 15.2334C14.4551 15.287 14.5999 15.3742 14.6416 15.4236C14.6401 15.4887 14.579 15.6478 14.5417 15.7452C14.4622 15.9517 14.3723 16.1858 14.3723 16.4453C14.3723 16.7048 14.4622 16.9389 14.5415 17.1456C14.579 17.243 14.6401 17.4021 14.6416 17.4672C14.5999 17.5166 14.4551 17.6038 14.3667 17.6574C14.1762 17.7721 13.9605 17.9023 13.8043 18.1058C13.6463 18.3115 13.5819 18.5491 13.5251 18.7585C13.5005 18.8499 13.4603 18.9981 13.4263 19.0541C13.4073 19.0578 13.3681 19.0632 13.294 19.0632C13.2343 19.0632 13.1678 19.06 13.0973 19.0566C13.0165 19.0529 12.9329 19.0489 12.8459 19.0489C12.6534 19.0489 12.4984 19.0696 12.3576 19.1144C12.1116 19.1924 11.9147 19.3438 11.7411 19.477C11.6466 19.5499 11.4889 19.6707 11.4261 19.6815C11.3633 19.6707 11.2058 19.5499 11.1113 19.477C10.9376 19.3438 10.7408 19.1924 10.4949 19.1144C10.3541 19.0696 10.1989 19.0489 10.0065 19.0489C9.91955 19.0489 9.83589 19.0529 9.75495 19.0566C9.68465 19.06 9.61811 19.0632 9.55844 19.0632C9.48439 19.0632 9.44517 19.0578 9.42619 19.0541C9.39198 18.9981 9.35192 18.8501 9.3271 18.7585C9.27057 18.5491 9.20611 18.3115 9.04819 18.1058C8.89194 17.9023 8.67624 17.7721 8.48578 17.6574C8.39733 17.604 8.25256 17.5166 8.21083 17.4672C8.21229 17.4023 8.27342 17.243 8.31076 17.1456C8.39024 16.9391 8.48015 16.705 8.48015 16.4455C8.48015 16.1858 8.39003 15.9517 8.31076 15.7452ZM13.2099 24.6686L11.71 23.7704C11.5365 23.6666 11.3158 23.6666 11.1422 23.7704L9.64231 24.6686V20.0811C9.69905 20.0796 9.75475 20.0776 9.80878 20.075C9.87949 20.0714 9.94625 20.0682 10.0065 20.0682C10.1012 20.0682 10.1417 20.0766 10.1574 20.0815C10.221 20.1019 10.3432 20.1958 10.4415 20.2713C10.6908 20.4629 11.001 20.7012 11.4261 20.7012C11.8513 20.7012 12.1615 20.4629 12.4107 20.2713C12.509 20.1958 12.6312 20.1019 12.6947 20.0817C12.7105 20.0768 12.751 20.0684 12.8457 20.0684C12.906 20.0684 12.9727 20.0716 13.0435 20.075C13.0975 20.0776 13.1532 20.0798 13.2097 20.0811L13.2099 24.6686ZM14.278 21.8191V19.6703C14.4368 19.4645 14.5031 19.2207 14.5592 19.0136C14.5886 18.9049 14.6289 18.7562 14.6656 18.7086C14.7021 18.6608 14.8379 18.5789 14.937 18.5192C15.1998 18.3607 15.5269 18.1634 15.6569 17.7902C15.7854 17.422 15.6517 17.0741 15.5443 16.7946C15.4954 16.6677 15.4402 16.5237 15.4402 16.4453C15.4402 16.3668 15.4954 16.2231 15.5443 16.0962C15.6517 15.8166 15.7854 15.4686 15.6569 15.1004C15.5269 14.7274 15.1998 14.5301 14.937 14.3716C14.8379 14.3118 14.7021 14.2298 14.6656 14.1824C14.6289 14.1346 14.5886 13.9859 14.5592 13.8772C14.4824 13.5934 14.3869 13.2401 14.0598 13.0111C13.7995 12.8291 13.498 12.808 13.2938 12.808C13.2074 12.808 13.124 12.812 13.0435 12.816C12.9727 12.8194 12.906 12.8226 12.8459 12.8226C12.751 12.8226 12.7105 12.8142 12.6949 12.8092C12.6315 12.7891 12.5092 12.6951 12.411 12.6195C12.1615 12.4281 11.8513 12.1898 11.4261 12.1898C11.0012 12.1898 10.6908 12.4281 10.4415 12.6195C10.3432 12.6949 10.221 12.7891 10.1576 12.8092C10.1419 12.8142 10.1012 12.8226 10.0065 12.8226C9.94646 12.8226 9.87949 12.8194 9.80878 12.8158C9.72825 12.812 9.64502 12.808 9.55844 12.808C9.35443 12.808 9.05299 12.8291 8.79285 13.0111C8.46554 13.2401 8.36979 13.5934 8.29303 13.8772C8.26361 13.9859 8.22335 14.1346 8.18684 14.1822C8.15013 14.2298 8.01432 14.3118 7.91523 14.3716C7.65239 14.5301 7.3255 14.7274 7.19533 15.1004C7.06682 15.4688 7.20054 15.8166 7.30798 16.0962C7.35679 16.2231 7.41207 16.3668 7.41207 16.4453C7.41207 16.5237 7.35679 16.6677 7.30798 16.7946C7.20054 17.0741 7.06682 17.422 7.19533 17.7904C7.3255 18.1634 7.6526 18.3607 7.91523 18.5192C8.01453 18.5789 8.15013 18.661 8.18684 18.7086C8.22335 18.7562 8.26361 18.9049 8.29303 19.0136C8.34914 19.2207 8.41569 19.4647 8.57444 19.6703V21.8191H1.06808V1.01953H12.0995V5.12274C12.0995 5.4043 12.3386 5.6325 12.6335 5.6325H16.9319V21.8191H14.278Z" fill="white"/>
<path fill-rule="evenodd" clip-rule="evenodd" d="M3.94813 6.84984H9.79642C10.047 6.84984 10.2504 6.64525 10.2504 6.39281C10.2504 6.14037 10.047 5.93578 9.79642 5.93578H3.94813C3.69741 5.93578 3.4942 6.14037 3.4942 6.39281C3.4942 6.64525 3.69758 6.84984 3.94813 6.84984Z" fill="white"/>
<path fill-rule="evenodd" clip-rule="evenodd" d="M13.9549 8.24271H3.94813C3.69741 8.24271 3.4942 8.4473 3.4942 8.69974C3.4942 8.95218 3.69741 9.15677 3.94813 9.15677H13.9549C14.2056 9.15677 14.4088 8.95218 14.4088 8.69974C14.4088 8.4473 14.2056 8.24271 13.9549 8.24271Z" fill="white"/>
<path fill-rule="evenodd" clip-rule="evenodd" d="M8.73058 10.8H3.86938C3.72057 10.8 3.59998 11.0016 3.59998 11.25C3.59998 11.4985 3.72057 11.7 3.86938 11.7H8.73058C8.87938 11.7 8.99998 11.4985 8.99998 11.25C8.99998 11.0016 8.87938 10.8 8.73058 10.8Z" fill="white"/>
<path fill-rule="evenodd" clip-rule="evenodd" d="M13.9539 10.8C13.7039 10.8 13.5 11.0053 13.5 11.257C13.5 11.5087 13.7039 11.7141 13.9539 11.7141C14.2041 11.7141 14.4079 11.5087 14.4079 11.257C14.4079 11.0053 14.2041 10.8 13.9539 10.8Z" fill="white"/>
</svg>
