<svg width="72" height="20" viewBox="0 0 72 20" fill="none" xmlns="http://www.w3.org/2000/svg">
<path d="M9.65177 15.4429H7.98046C7.87601 15.1295 7.87601 14.3983 7.77155 13.4582C7.04035 15.0251 5.78687 15.7563 3.90665 15.7563C2.65317 15.7563 1.71306 15.4429 1.08632 14.8162C0.459575 14.1894 0.041748 13.3538 0.041748 12.4137C0.041748 11.2646 0.564033 10.429 1.50414 9.69779C2.44425 8.96659 4.01111 8.65322 6.30916 8.65322C6.62253 8.65322 7.14481 8.65322 7.77155 8.65322C7.77155 7.81756 7.66709 7.19082 7.56264 6.773C7.45818 6.35517 7.14481 6.0418 6.72698 5.83289C6.30916 5.62397 5.68242 5.51952 4.95122 5.51952C3.17545 5.51952 2.23534 6.14626 1.92197 7.50419L0.355119 7.19082C0.772946 5.20614 2.3398 4.16158 5.16013 4.16158C6.72698 4.16158 7.77155 4.47495 8.39829 5.20615C9.02503 5.83289 9.3384 7.08637 9.3384 8.65322V13.3538C9.44286 14.085 9.54732 14.8162 9.65177 15.4429ZM7.77155 9.9067C7.04035 9.9067 6.51807 9.80224 6.2047 9.80224C4.84676 9.80224 3.80219 10.0112 3.07099 10.429C2.3398 10.8468 1.92197 11.4736 1.92197 12.4137C1.92197 12.9359 2.13088 13.4582 2.54871 13.7716C2.96654 14.1894 3.48882 14.2939 4.32448 14.2939C5.36904 14.2939 6.2047 13.8761 6.83144 13.1449C7.45818 12.4137 7.87601 11.4736 7.87601 10.5334C7.77155 10.429 7.77155 10.2201 7.77155 9.9067ZM17.5905 14.2939V15.6518C16.9638 15.7563 16.4415 15.7563 16.0236 15.7563C13.9345 15.7563 12.7855 14.6073 12.7855 12.4137V5.83289H10.8008V4.47495H12.7855L12.8899 1.75907L14.4568 1.65461V4.5794H16.9637V5.93734H14.4568V12.8315C14.4568 13.9805 15.0835 14.5028 16.2326 14.5028C16.6504 14.3983 17.1727 14.2939 17.5905 14.2939ZM20.2019 7.71311L18.6351 7.39974C18.9484 6.45963 19.4707 5.72843 20.3064 5.10169C21.142 4.47495 22.1866 4.16158 23.2312 4.16158C24.6936 4.16158 25.947 4.68386 26.8871 5.72843C27.8273 6.773 28.2451 8.13094 28.2451 9.9067C28.2451 11.6825 27.7228 13.0404 26.7827 14.1894C25.8426 15.234 24.5891 15.8607 23.1267 15.8607C21.6643 15.8607 20.5153 15.3385 19.6796 14.3983C18.844 13.3538 18.3217 11.8914 18.3217 9.9067H26.3649C26.3649 8.23539 26.0515 7.08637 25.3203 6.56408C24.5891 5.93734 23.8579 5.72843 23.1267 5.72843C21.7688 5.51952 20.7242 6.25071 20.2019 7.71311ZM20.3064 11.0557C20.3064 11.6825 20.4108 12.2047 20.6197 12.727C20.8286 13.2493 21.142 13.6671 21.5598 13.9805C21.9777 14.2939 22.6044 14.5028 23.2312 14.5028C24.0668 14.5028 24.798 14.1894 25.4247 13.5627C26.0515 12.9359 26.3649 12.1003 26.4693 11.0557H20.3064ZM29.0807 12.6226L30.752 12.3092C30.961 13.0404 31.3788 13.6671 32.0055 13.8761C32.6323 14.1894 33.3635 14.2939 34.1991 14.2939C34.9303 14.2939 35.5571 14.085 35.9749 13.7716C36.4972 13.4582 36.7061 13.0404 36.7061 12.4137C36.7061 11.578 36.0793 10.9513 34.8259 10.7424L32.5278 10.3245C31.5877 10.1156 30.8565 9.80224 30.3342 9.27996C29.8119 8.75768 29.4986 8.13094 29.4986 7.29528C29.4986 6.35517 29.8119 5.62397 30.5431 4.99723C31.2743 4.37049 32.2144 4.05712 33.4679 4.05712C35.8704 4.05712 37.3328 4.99723 37.8551 6.87745L36.2883 7.19082C35.8704 6.0418 34.9303 5.51952 33.4679 5.51952C32.7367 5.51952 32.2144 5.62397 31.7966 5.93734C31.3788 6.25071 31.1699 6.66854 31.1699 7.19082C31.1699 8.02648 31.6922 8.54876 32.8412 8.75768L35.0348 9.1755C37.2284 9.59333 38.3774 10.6379 38.3774 12.4137C38.3774 13.4582 37.9596 14.2939 37.1239 14.9206C36.2883 15.5474 35.2437 15.8607 33.8857 15.8607L33.6768 16.5919C34.408 16.5919 34.9303 16.6964 35.2437 17.0098C35.5571 17.3231 35.766 17.6365 35.766 18.0543C35.766 18.4722 35.5571 18.7855 35.2437 19.2034C34.9303 19.5167 34.408 19.7256 33.6768 19.7256C32.9456 19.7256 32.3189 19.5167 31.6922 19.2034L31.9011 18.4722C32.4234 18.6811 32.9456 18.89 33.4679 18.89C33.7813 18.89 34.0947 18.7855 34.3036 18.6811C34.5125 18.5766 34.6169 18.3677 34.6169 18.1588C34.6169 17.6365 34.1991 17.4276 33.3635 17.4276C33.1546 17.4276 32.9456 17.4276 32.5278 17.532L33.0501 16.0697C30.961 15.4429 29.603 14.3983 29.0807 12.6226ZM49.6587 2.69918V4.05712C48.8231 4.05712 48.3008 4.16158 48.0919 4.37049C47.7785 4.5794 47.674 4.89277 47.5696 5.3106C48.3008 6.14626 48.6142 6.98191 48.6142 7.92202C48.6142 8.96659 48.1963 9.80224 47.4651 10.5334C46.7339 11.2646 45.6894 11.578 44.3314 11.578C44.0181 11.578 43.8091 11.578 43.6002 11.4736C43.1824 11.3691 42.9735 11.3691 42.869 11.3691C42.6601 11.3691 42.4512 11.4736 42.1378 11.6825C41.8245 11.8914 41.72 12.1003 41.72 12.4137C41.72 12.8315 41.9289 13.1449 42.3467 13.2493C42.7646 13.3538 43.7047 13.4582 45.1671 13.4582C46.4206 13.4582 47.3607 13.5627 47.9874 13.6671C48.6142 13.7716 49.1364 14.085 49.5543 14.6073C49.9721 15.0251 50.181 15.6518 50.181 16.2786C50.181 18.3677 48.3008 19.4123 44.6448 19.4123C42.869 19.4123 41.6156 19.0989 40.7799 18.5766C39.9442 18.0543 39.6309 17.3231 39.6309 16.4875C39.6309 15.4429 40.1532 14.7117 41.3022 14.2939C40.571 13.7716 40.2576 13.2493 40.2576 12.5181C40.2576 11.6825 40.7799 11.0557 41.8245 10.5334C40.8844 9.80224 40.3621 8.75768 40.3621 7.60865C40.3621 6.56408 40.7799 5.62397 41.6156 4.89278C42.4512 4.16158 43.3913 3.84821 44.5403 3.84821C45.376 3.84821 46.1072 4.05712 46.8384 4.26603C46.9429 3.53484 47.1518 3.01255 47.5696 2.80364C47.9874 2.49027 48.6142 2.38581 49.3454 2.38581C49.3454 2.69918 49.4498 2.69918 49.6587 2.69918ZM42.3467 15.0251C41.5111 15.3385 41.1977 15.8607 41.1977 16.4875C41.1977 17.0098 41.5111 17.532 42.1378 17.741C42.7646 18.0543 43.6002 18.1588 44.6448 18.1588C45.5849 18.1588 46.4206 18.0543 47.2562 17.741C48.0919 17.4276 48.4052 17.0098 48.4052 16.383C48.4052 16.0696 48.3008 15.7563 48.0919 15.5474C47.883 15.3385 47.5696 15.234 47.1518 15.1295C46.7339 15.0251 46.0027 15.0251 45.0626 15.0251C43.8091 15.1295 42.9735 15.0251 42.3467 15.0251ZM44.4359 10.3245C45.1671 10.3245 45.7938 10.1156 46.2116 9.69779C46.6295 9.27996 46.9429 8.65322 46.9429 7.92202C46.9429 7.19082 46.7339 6.56408 46.2116 6.14626C45.6894 5.72843 45.1671 5.41506 44.4359 5.41506C43.8091 5.41506 43.1824 5.62397 42.7646 6.0418C42.2423 6.45963 42.0334 7.08637 42.0334 7.92202C42.0334 8.65322 42.2423 9.1755 42.6601 9.69779C43.0779 10.1156 43.7047 10.3245 44.4359 10.3245ZM60 15.4429H58.3286C58.2242 15.1295 58.2242 14.3983 58.1197 13.4582C57.3885 15.0251 56.0306 15.7563 54.2548 15.7563C53.0013 15.7563 52.0612 15.4429 51.4345 14.8162C50.8077 14.1894 50.4944 13.3538 50.4944 12.4137C50.4944 11.2646 50.9122 10.429 51.9568 9.69779C52.8969 8.96659 54.4637 8.65322 56.7618 8.65322C57.0752 8.65322 57.5974 8.65322 58.2242 8.65322C58.2242 7.81756 58.1197 7.19082 58.0153 6.773C57.9108 6.35517 57.5974 6.0418 57.1796 5.83289C56.7618 5.62397 56.135 5.51952 55.5083 5.51952C53.7325 5.51952 52.7924 6.14626 52.4791 7.50419L50.9122 7.19082C51.33 5.20614 52.8969 4.16158 55.8217 4.16158C57.3885 4.16158 58.4331 4.47495 59.0598 5.20615C59.6866 5.83289 60 7.08637 60 8.65322V13.3538C59.791 14.085 59.8955 14.8162 60 15.4429ZM58.1197 9.9067C57.3885 9.9067 56.8662 9.80224 56.5529 9.80224C55.1949 9.80224 54.1504 10.0112 53.4192 10.429C52.688 10.8468 52.2701 11.4736 52.2701 12.4137C52.2701 12.9359 52.4791 13.4582 52.8969 13.7716C53.3147 14.1894 53.837 14.2939 54.6726 14.2939C55.7172 14.2939 56.5529 13.8761 57.1796 13.1449C57.8064 12.4137 58.2242 11.4736 58.2242 10.5334C58.1197 10.429 58.1197 10.2201 58.1197 9.9067ZM71.5947 15.4429H69.9233V8.75768C69.9233 7.92202 69.9233 7.39974 69.8189 6.98191C69.7144 6.56408 69.5055 6.25071 69.0877 5.93734C68.7743 5.62397 68.252 5.51952 67.8342 5.51952C66.9986 5.51952 66.2673 5.83289 65.6406 6.56408C65.0139 7.29528 64.805 8.23539 64.805 9.48887V15.4429H63.1337V0.610046H64.805V6.45963C65.5362 4.89278 66.6852 4.16158 68.1476 4.16158C68.7743 4.16158 69.4011 4.26603 69.9233 4.5794C70.4456 4.78832 70.8635 5.20614 71.0724 5.62397C71.3857 6.0418 71.4902 6.45963 71.5947 6.87745C71.6991 7.29528 71.6991 7.92202 71.6991 8.86213V15.4429H71.5947Z" fill="white"/>
</svg>
