<svg width="62" height="21" viewBox="0 0 62 21" fill="none" xmlns="http://www.w3.org/2000/svg">
<path d="M0.370483 13.6226L2.04179 13.3092C2.35516 14.6671 3.50419 15.3983 5.48887 15.3983C6.22007 15.3983 6.8468 15.1894 7.26463 14.8761C7.78692 14.5627 7.99583 14.1449 7.99583 13.5181C7.99583 12.6825 7.36909 12.0557 6.11561 11.8468L3.81756 11.429C2.87745 11.2201 2.14625 10.9067 1.62397 10.3844C1.10169 9.86213 0.788312 9.23539 0.788312 8.39973C0.788312 7.45962 1.10168 6.72842 1.93734 6.10168C2.66853 5.47494 3.60865 5.16157 4.86213 5.16157C7.26464 5.16157 8.72703 6.10168 9.24931 7.9819L7.68246 8.29528C7.26463 7.14625 6.32453 6.62397 4.86213 6.62397C4.13093 6.62397 3.60865 6.72842 3.19082 7.04179C2.77299 7.35516 2.56407 7.77299 2.56407 8.19082C2.56407 9.02647 3.08637 9.54876 4.23539 9.75767L6.32453 10.1755C8.51812 10.5933 9.66714 11.6379 9.66714 13.4137C9.66714 14.4582 9.24932 15.1894 8.41366 15.8162C7.57801 16.4429 6.42898 16.7563 5.07104 16.7563C2.56408 16.7563 0.892767 15.7117 0.370483 13.6226ZM13.6365 16.4429H11.9652V5.47494H13.6365V16.4429ZM25.7535 3.69917V5.05711C25.0223 5.05711 24.5 5.16157 24.1866 5.37048C23.8733 5.5794 23.7688 5.89277 23.6644 6.3106C24.3956 7.14625 24.7089 7.9819 24.7089 8.92202C24.7089 9.96659 24.2911 10.8022 23.5599 11.5334C22.8287 12.2646 21.7841 12.578 20.4262 12.578C20.1128 12.578 19.9039 12.578 19.695 12.4735C19.2772 12.3691 19.0683 12.3691 18.9638 12.3691C18.7549 12.3691 18.546 12.4735 18.2326 12.6825C17.9192 12.8914 17.8148 13.1003 17.8148 13.4137C17.8148 13.8315 18.0237 14.1449 18.4415 14.2493C18.8593 14.3538 19.7995 14.4582 21.2618 14.4582C22.5153 14.4582 23.4554 14.5627 24.0822 14.6671C24.7089 14.7716 25.2312 15.085 25.649 15.6073C26.0669 16.0251 26.2758 16.6518 26.2758 17.2786C26.2758 19.3677 24.3956 20.4123 20.7396 20.4123C18.9638 20.4123 17.7103 20.0989 16.8747 19.5766C16.039 19.0543 15.7256 18.3231 15.7256 17.4875C15.7256 16.4429 16.2479 15.7117 17.3969 15.2939C16.6658 14.7716 16.3524 14.2493 16.3524 13.5181C16.3524 12.6825 16.8747 12.0557 17.9192 11.5334C16.9791 10.8022 16.4568 9.75767 16.4568 8.60864C16.4568 7.56408 16.8747 6.62397 17.7103 5.89277C18.546 5.16157 19.4861 4.8482 20.6351 4.8482C21.4708 4.8482 22.202 5.05711 22.9332 5.26603C23.0376 4.53483 23.2465 4.01255 23.6644 3.80363C24.0822 3.49026 24.7089 3.3858 25.4401 3.3858C25.4401 3.69917 25.649 3.69917 25.7535 3.69917ZM18.546 16.0251C17.7103 16.3384 17.3969 16.8607 17.3969 17.4875C17.3969 18.0098 17.7103 18.532 18.3371 18.741C18.9638 19.0543 19.7994 19.1588 20.844 19.1588C21.7841 19.1588 22.6198 19.0543 23.4554 18.741C24.2911 18.4276 24.6045 18.0098 24.6045 17.383C24.6045 17.0696 24.5 16.7563 24.2911 16.5474C24.0822 16.3384 23.7688 16.234 23.351 16.1295C22.9332 16.0251 22.202 16.0251 21.2618 16.0251C20.0084 16.1295 19.0683 16.0251 18.546 16.0251ZM17.3969 0.774384H18.6504C18.8593 1.71449 19.4861 2.23678 20.6351 2.23678C21.7841 2.23678 22.5153 1.71449 22.7242 0.774384H23.9777C23.6644 2.65461 22.6198 3.59472 20.844 3.59472C18.7549 3.59472 17.6059 2.65461 17.3969 0.774384ZM20.5307 11.3245C21.2619 11.3245 21.8886 11.1156 22.3064 10.6978C22.7242 10.28 23.0376 9.65321 23.0376 8.92202C23.0376 8.19082 22.8287 7.56408 22.3064 7.14625C21.7841 6.72842 21.2619 6.41505 20.5307 6.41505C19.9039 6.41505 19.2772 6.62397 18.8593 7.04179C18.3371 7.45962 18.1281 8.08636 18.1281 8.92202C18.1281 9.65321 18.3371 10.1755 18.7549 10.6978C19.2772 11.1156 19.7995 11.3245 20.5307 11.3245ZM31.4986 16.7563C30.0362 16.7563 28.7827 16.234 27.9471 15.085C27.1114 13.9359 26.6936 12.578 26.6936 10.9067C26.6936 9.13093 27.2159 7.77299 28.156 6.72842C29.0961 5.68385 30.2451 5.16157 31.7075 5.16157C33.1699 5.16157 34.4234 5.68385 35.2591 6.83288C36.0947 7.87745 36.617 9.33984 36.617 10.9067C36.617 12.578 36.0947 14.0404 35.1546 15.085C34.2145 16.234 32.961 16.7563 31.4986 16.7563ZM31.6031 15.2939C32.4387 15.2939 33.1699 14.9805 33.7967 14.2493C34.4234 13.5181 34.6323 12.3691 34.6323 10.9067C34.6323 9.33984 34.319 8.29527 33.6922 7.56408C33.0655 6.83288 32.3343 6.51951 31.4986 6.51951C30.663 6.51951 29.9318 6.83288 29.305 7.56408C28.6783 8.29527 28.4694 9.33984 28.4694 10.9067C28.4694 12.4735 28.7827 13.6226 29.305 14.3538C30.0362 14.9805 30.7674 15.2939 31.6031 15.2939ZM40.5864 16.4429H38.9151V5.47494H40.3774V8.08636C40.8997 6.83288 41.422 6.10168 41.9443 5.68385C42.4666 5.37048 42.9889 5.16157 43.6156 5.16157C43.8245 5.16157 44.0334 5.16157 44.2423 5.16157V6.83288H43.929C42.9889 6.83288 42.1532 7.14625 41.6309 7.87745C41.0042 8.60864 40.6908 9.54876 40.5864 10.6978V16.4429ZM51.7632 15.2939V16.6518C51.1365 16.7563 50.6142 16.7563 50.1964 16.7563C48.1073 16.7563 46.9582 15.6073 46.9582 13.4137V6.83288H44.9735V5.47494H46.9582L47.0627 2.75906L48.6295 2.65461V5.5794H51.1365V6.93734H48.6295V13.8315C48.6295 14.9805 49.2563 15.5028 50.4053 15.5028C50.8231 15.3983 51.241 15.2939 51.7632 15.2939ZM62 16.4429H60.3287C60.2242 16.1295 60.2242 15.3983 60.1198 14.4582C59.3886 16.0251 58.0307 16.7563 56.2549 16.7563C55.0014 16.7563 54.0613 16.4429 53.4345 15.8162C52.8078 15.1894 52.4944 14.3538 52.4944 13.4137C52.4944 12.2646 53.0167 11.429 53.9568 10.6978C54.8969 9.96658 56.4638 9.65321 58.7618 9.65321C59.0752 9.65321 59.5975 9.65321 60.2242 9.65321C60.2242 8.81756 60.1198 8.19082 60.0153 7.77299C59.9109 7.35516 59.5975 7.04179 59.1797 6.83288C58.7618 6.62397 58.1351 6.51951 57.5084 6.51951C55.7326 6.51951 54.7925 7.14625 54.4791 8.50419L52.9123 8.19082C53.3301 6.20614 54.8969 5.16157 57.7173 5.16157C59.2841 5.16157 60.3287 5.47494 60.9554 6.20614C61.5822 6.83288 61.8955 8.08636 61.8955 9.65321V14.3538C61.7911 15.085 61.8956 15.8162 62 16.4429ZM60.1198 10.9067C59.3886 10.9067 58.8663 10.8022 58.5529 10.8022C57.195 10.8022 56.1504 11.0112 55.4192 11.429C54.688 11.8468 54.2702 12.4735 54.2702 13.4137C54.2702 13.9359 54.4791 14.4582 54.8969 14.7716C55.3148 15.085 55.8371 15.2939 56.6727 15.2939C57.7173 15.2939 58.5529 14.8761 59.1797 14.1449C59.8064 13.4137 60.2242 12.4735 60.2242 11.5334C60.2242 11.429 60.1198 11.2201 60.1198 10.9067Z" fill="#FF8300"/>
</svg>
