<svg width="52" height="52" viewBox="0 0 52 52" fill="none" xmlns="http://www.w3.org/2000/svg">
<circle cx="26" cy="26" r="26" fill="#FF8300"/>
<path d="M30.3846 16.9615V14.5981L34.0172 18.2308H31.6538C30.9531 18.2302 30.3856 17.6623 30.3846 16.9615Z" fill="white"/>
<path d="M31.6538 19.0769C30.4861 19.0759 29.5395 18.1292 29.5384 16.9615V14H17.2692C16.5685 14.0011 16.0011 14.5685 16 15.2692V36.423C16.0011 37.1238 16.5685 37.6912 17.2692 37.6923H28.6077C28.6019 37.6875 28.5966 37.6833 28.5913 37.6785C27.2385 36.5209 26.4177 34.9068 26.2797 33.132C26.1417 31.3578 26.7028 29.6353 27.8609 28.282C29.1296 26.8028 30.9758 25.954 32.9257 25.954C33.5 25.954 34.0675 26.0286 34.6153 26.1724V19.0769H31.6538ZM25.7138 26.4437C25.5605 26.5971 25.3489 26.6918 25.1152 26.6918H20.1514C19.6845 26.6918 19.3053 26.3131 19.3053 25.8456C19.3053 25.6124 19.3999 25.4008 19.5533 25.2475C19.7061 25.0941 19.9177 24.9995 20.1514 24.9995H25.1152C25.5827 24.9995 25.9613 25.3786 25.9613 25.8456C25.9613 26.0794 25.8667 26.2909 25.7138 26.4437ZM27.9424 23.0591C27.789 23.2125 27.5775 23.3071 27.3437 23.3071H20.1514C19.6845 23.3071 19.3053 22.9285 19.3053 22.461C19.3053 22.2278 19.3999 22.0162 19.5533 21.8629C19.7061 21.7095 19.9177 21.6148 20.1514 21.6148H27.3437C27.8112 21.6148 28.1899 21.994 28.1899 22.461C28.1899 22.6947 28.0952 22.9063 27.9424 23.0591ZM27.9424 19.675C27.789 19.8284 27.5775 19.9231 27.3437 19.9231H20.1514C19.6845 19.9231 19.3053 19.5439 19.3053 19.0769C19.3053 18.8432 19.3999 18.6316 19.5533 18.4783C19.7061 18.3254 19.9177 18.2308 20.1514 18.2308H27.3437C27.8112 18.2308 28.1899 18.6094 28.1899 19.0769C28.1899 19.3107 28.0952 19.5222 27.9424 19.675Z" fill="white"/>
<path d="M36.2235 28.758C35.2663 27.9409 34.0934 27.5406 32.9257 27.5406C31.4936 27.5406 30.0704 28.1424 29.0656 29.3148C27.2427 31.445 27.4918 34.6498 29.6225 36.4727C30.5792 37.2914 31.7527 37.6923 32.9209 37.6923C34.353 37.6923 35.7761 37.0894 36.7804 35.9159C38.6033 33.7857 38.3543 30.5809 36.2235 28.758ZM35.6556 35.1649C35.535 35.3061 35.3594 35.387 35.1733 35.387C35.022 35.387 34.8755 35.3331 34.7608 35.2347L32.5105 33.3092C32.4915 33.2928 32.4756 33.278 32.4619 33.2632L32.4598 33.2616L32.4582 33.259C32.4016 33.1965 32.3593 33.1283 32.3312 33.0559C32.3027 32.9829 32.2884 32.9052 32.2884 32.8227V32.8168C32.2926 32.4324 32.3032 31.6127 32.3133 30.867C32.3133 30.8532 32.3138 30.839 32.3138 30.8247C32.3143 30.7977 32.3149 30.7707 32.3149 30.7438C32.3196 30.4085 32.3238 30.1017 32.3265 29.8786C32.3297 29.6559 32.3312 29.5163 32.3312 29.5147C32.336 29.1689 32.6205 28.888 32.9659 28.888H32.9743C33.1473 28.8902 33.3038 28.9626 33.417 29.0774C33.5301 29.1927 33.6005 29.3497 33.6005 29.5221V29.5311L33.5613 32.5381L35.5858 34.2701C35.6022 34.2839 35.6175 34.2987 35.6323 34.314C35.6884 34.3727 35.7322 34.4409 35.7619 34.5155C35.792 34.5901 35.8079 34.6704 35.8079 34.7524C35.8079 34.9031 35.7539 35.0496 35.6556 35.1649Z" fill="white"/>
</svg>
