<svg width="13" height="38" viewBox="0 0 13 38" fill="none" xmlns="http://www.w3.org/2000/svg">
<path d="M3.8187 17.1309C5.90783 13.5794 7.89251 10.3412 7.78806 7.52089L7.57914 5.64067L8.51925 6.78969C8.83262 7.20752 9.146 7.62535 9.45937 8.14763C9.87719 5.53621 9.146 2.82033 6.84795 0C7.05686 3.23816 4.96772 6.68524 2.66967 10.5501C0.78945 13.6838 0.267166 17.1309 2.25185 20.6824C2.56522 19.6379 2.98304 18.4889 3.71424 17.4443L3.8187 17.1309Z" fill="#FFCD00"/>
<path d="M5.70073 24.1295C7.78987 20.5779 9.77455 17.3398 9.56564 14.5194L9.46118 12.6392L10.4013 13.7882C10.5057 13.9972 10.7147 14.2061 10.8191 14.415C10.8191 12.2214 10.0879 9.81889 8.2077 7.41638C8.41661 10.6545 6.32748 14.2061 4.02943 17.9665C2.04475 21.3091 1.62692 24.9651 3.92497 28.7256C4.13388 27.2632 4.76062 25.8008 5.59628 24.4428L5.70073 24.1295Z" fill="#FF8300"/>
<path d="M10.0882 14.415C10.2971 17.6532 8.20799 21.2047 5.90994 24.9652C3.61189 28.8301 3.40298 32.9039 6.85005 37.2911C6.64114 34.0529 8.73027 30.6058 11.0283 26.7409C13.4308 22.9805 13.5353 18.8022 10.0882 14.415Z" fill="#E1251B"/>
</svg>
